<?xml version="1.0" encoding="UTF-8"?>
<svg xmlns="http://www.w3.org/2000/svg" width="222" height="39" viewBox="0 0 222 39" fill="none">
  <g clip-path="url(#clip0_1195_147)">
    <path d="M12.7072 15.1561C13.3732 13.9286 14.3237 12.9847 15.5539 12.3244C16.7842 11.6641 18.2202 11.334 19.8621 11.334C21.134 11.334 22.3388 11.5758 23.4789 12.0617C24.6166 12.5476 25.5717 13.2729 26.3417 14.2424C27.1118 15.2119 27.5466 16.3976 27.6506 17.7995H23.835C23.6916 16.7486 23.2592 15.9582 22.5423 15.4328C21.8231 14.9073 20.9305 14.6446 19.8644 14.6446C18.9417 14.6446 18.1509 14.8469 17.4941 15.2491C16.8374 15.6513 16.3402 16.2093 16.0026 16.9207C15.6649 17.6321 15.4938 18.4528 15.4938 19.3804C15.4938 20.3081 15.6626 21.1404 16.0026 21.8704C16.3402 22.6027 16.8374 23.17 17.4941 23.5722C18.1509 23.9744 18.9394 24.1767 19.8644 24.1767C20.9305 24.1767 21.8231 23.9047 22.5423 23.356C23.2592 22.8096 23.6916 22.0215 23.835 20.9892H27.6506C27.5466 22.3912 27.1118 23.5838 26.3417 24.5626C25.5717 25.5437 24.6189 26.2691 23.4789 26.7433C22.3411 27.2176 21.134 27.4548 19.8621 27.4548C18.2411 27.4548 16.8096 27.12 15.5678 26.4481C14.326 25.7785 13.3732 24.8346 12.7049 23.6164C12.0389 22.4005 11.7036 20.9869 11.7036 19.3781C11.7036 17.7693 12.0366 16.3813 12.7049 15.1538L12.7072 15.1561Z" fill="white"></path>
    <path d="M31.08 19.7199C31.9518 18.9364 33.3833 18.4412 35.3743 18.2343L40.8526 17.6763C40.811 16.5208 40.5081 15.6769 39.9438 15.1398C39.3796 14.6028 38.4823 14.3354 37.2498 14.3354C36.2045 14.3354 35.3766 14.5772 34.7731 15.0631C34.1672 15.549 33.8249 16.3069 33.7417 17.3368H30.1111C30.192 16.1 30.5458 15.0329 31.1725 14.1355C31.7992 13.2381 32.6456 12.5476 33.7116 12.0617C34.7777 11.5781 35.9987 11.334 37.3746 11.334C38.8523 11.334 40.1334 11.6083 41.2226 12.1547C42.3095 12.701 43.1513 13.4845 43.7456 14.5051C44.3399 15.5258 44.6382 16.7789 44.6382 18.2645V23.8651H46.8859V27.1455H43.7779C43.1212 27.1455 42.6124 26.9642 42.254 26.6038C41.8956 26.2435 41.7152 25.732 41.7152 25.0717V22.812H41.8378C41.4886 24.1953 40.7971 25.3135 39.7611 26.1691C38.7251 27.0247 37.2012 27.4524 35.1916 27.4524C33.1821 27.4524 31.7252 26.9782 30.9436 26.0296C30.1642 25.081 29.7734 24.0302 29.7734 22.8747C29.7734 21.5542 30.2082 20.5033 31.0823 19.7199H31.08ZM34.1579 23.8814C34.5996 24.2208 35.2101 24.3929 35.9894 24.3929C36.9329 24.3929 37.7747 24.2022 38.5124 23.821C39.2501 23.4397 39.8259 22.9073 40.2352 22.2284C40.6445 21.5472 40.8503 20.7754 40.8503 19.9082L36.0496 20.4964C35.9663 20.4964 35.8437 20.5173 35.6796 20.5591C34.9211 20.6428 34.3661 20.8219 34.0169 21.1008C33.6677 21.3798 33.4942 21.7774 33.4942 22.2912C33.4942 23.0142 33.7139 23.5443 34.1556 23.8837L34.1579 23.8814Z" fill="white"></path>
    <path d="M48.6501 11.6456H52.4056V15.6979H52.2831C52.6716 14.3983 53.3237 13.3475 54.2371 12.543C55.1506 11.7386 56.3346 11.3364 57.7915 11.3364C59.0009 11.3364 59.9652 11.641 60.6844 12.2501C61.4013 12.8592 61.9193 13.6939 62.2384 14.7563C62.5552 15.8188 62.7148 17.1021 62.7148 18.6087V27.148H59.1766V18.9179C59.1766 17.9066 59.0934 17.0928 58.9315 16.4744C58.7673 15.856 58.4898 15.3957 58.1013 15.0981C57.7105 14.7982 57.1879 14.6494 56.5311 14.6494C55.546 14.6494 54.7505 14.9121 54.147 15.4375C53.5411 15.963 53.0994 16.7023 52.8242 17.6508C52.5467 18.5994 52.408 19.7967 52.408 21.2404V27.1503H48.6525V11.6456H48.6501ZM62.0996 15.9165H62.1297C62.5182 14.575 63.2073 13.4776 64.1925 12.6221C65.1776 11.7665 66.4795 11.3388 68.1006 11.3388C69.9876 11.3388 71.352 11.9734 72.1937 13.2405C73.0355 14.5099 73.4563 16.2977 73.4563 18.6087V27.148H69.7008V18.9179C69.7008 17.9066 69.6176 17.0928 69.4557 16.4744C69.2915 15.856 69.014 15.3957 68.6255 15.0981C68.2347 14.7982 67.7121 14.6494 67.0553 14.6494C66.0702 14.6494 65.2747 14.9121 64.6711 15.4375C64.0653 15.963 63.6236 16.7023 63.3484 17.6508C63.0709 18.5994 62.9321 19.7967 62.9321 21.2404V27.1503H59.2391L62.102 15.9188L62.0996 15.9165Z" fill="white"></path>
    <path d="M76.6831 11.6456H80.4386V15.7909H80.1611C80.6745 14.4285 81.463 13.3475 82.5314 12.543C83.5975 11.7386 85.0035 11.3364 86.7471 11.3364C88.2641 11.3364 89.5637 11.6828 90.6414 12.3733C91.719 13.0638 92.533 14.024 93.088 15.2515C93.643 16.4791 93.9182 17.867 93.9182 19.4131C93.9182 20.9591 93.6407 22.3378 93.088 23.5444C92.533 24.751 91.719 25.7066 90.6414 26.4064C89.5637 27.1085 88.2664 27.4595 86.7471 27.4595C84.9827 27.4595 83.5628 27.0527 82.4852 26.2366C81.4075 25.4229 80.6329 24.3442 80.1611 23.0027H80.4386V33.2136H76.6831V11.6456ZM87.901 23.6514C88.6087 23.3003 89.1637 22.7749 89.5637 22.0728C89.9638 21.3706 90.165 20.4849 90.165 19.4108C90.165 18.3367 89.9638 17.4509 89.5637 16.7488C89.1637 16.0466 88.6087 15.5212 87.901 15.1702C87.1934 14.8191 86.3563 14.6447 85.392 14.6447C84.4277 14.6447 83.5813 14.8191 82.8529 15.1702C82.1244 15.5212 81.5486 16.0513 81.13 16.7627C80.7092 17.4741 80.4987 18.3553 80.4987 19.4084C80.4987 20.4616 80.7092 21.3427 81.13 22.0542C81.5509 22.7656 82.1244 23.298 82.8529 23.6467C83.5813 23.9978 84.4277 24.1721 85.392 24.1721C86.3563 24.1721 87.1934 23.9978 87.901 23.6467V23.6514Z" fill="white"></path>
    <path d="M96.4353 11.6456H100.191V15.6979H100.068C100.457 14.3983 101.109 13.3475 102.022 12.543C102.936 11.7386 104.12 11.3364 105.577 11.3364C106.786 11.3364 107.75 11.641 108.47 12.2501C109.186 12.8592 109.704 13.6939 110.024 14.7563C110.34 15.8188 110.5 17.1021 110.5 18.6087V27.148H106.962V18.9179C106.962 17.9066 106.879 17.0928 106.717 16.4744C106.552 15.856 106.275 15.3957 105.886 15.0981C105.496 14.7982 104.973 14.6494 104.316 14.6494C103.331 14.6494 102.536 14.9121 101.932 15.4375C101.326 15.963 100.885 16.7023 100.609 17.6508C100.332 18.5994 100.193 19.7967 100.193 21.2404V27.1503H96.4376V11.6456H96.4353ZM109.885 15.9165H109.915C110.303 14.575 110.992 13.4776 111.978 12.6221C112.963 11.7665 114.265 11.3388 115.886 11.3388C117.773 11.3388 119.137 11.9734 119.979 13.2405C120.821 14.5099 121.241 16.2977 121.241 18.6087V27.148H117.486V18.9179C117.486 17.9066 117.403 17.0928 117.241 16.4744C117.077 15.856 116.799 15.3957 116.411 15.0981C116.02 14.7982 115.497 14.6494 114.84 14.6494C113.855 14.6494 113.06 14.9121 112.456 15.4375C111.85 15.963 111.409 16.7023 111.134 17.6508C110.856 18.5994 110.717 19.7967 110.717 21.2404V27.1503H107.024L109.887 15.9188L109.885 15.9165Z" fill="white"></path>
    <path d="M123.541 23.8674H127.849V14.9561H124.401V11.6455H129.202C129.879 11.6455 130.402 11.8199 130.772 12.1709C131.142 12.522 131.327 13.059 131.327 13.7798V23.8674H135.665V27.1479H123.538V23.8674H123.541Z" fill="white"></path>
    <path d="M137.948 11.6455H141.703V16.0698H141.581C141.93 14.6051 142.658 13.4496 143.766 12.6034C144.874 11.7571 146.28 11.334 147.982 11.334C149.869 11.334 151.337 11.9385 152.382 13.1451C153.43 14.3517 153.952 16.0698 153.952 18.297V27.1456H150.167V18.8224C150.167 17.3159 149.894 16.2441 149.351 15.6048C148.807 14.9655 147.91 14.6446 146.656 14.6446C145.63 14.6446 144.753 14.8771 144.025 15.3398C143.296 15.8047 142.728 16.5115 142.316 17.4601C141.904 18.4086 141.701 19.585 141.701 20.9869V27.1432H137.945V11.6455H137.948Z" fill="white"></path>
    <path d="M159.681 26.4039C158.603 25.7017 157.789 24.7439 157.234 23.5256C156.679 22.3097 156.404 20.9264 156.404 19.3804C156.404 17.8343 156.681 16.4254 157.234 15.2188C157.789 14.0122 158.603 13.0636 159.681 12.3732C160.758 11.6827 162.056 11.3363 163.575 11.3363C165.36 11.3363 166.78 11.7501 167.837 12.5731C168.894 13.3984 169.668 14.4702 170.161 15.7907H169.853V4.40576H173.639V27.1455H169.853V23.0002H170.161C169.668 24.3626 168.884 25.4437 167.807 26.2481C166.729 27.0525 165.318 27.4547 163.575 27.4547C162.056 27.4547 160.758 27.1036 159.681 26.4015V26.4039ZM167.451 23.6349C168.188 23.2746 168.769 22.7329 169.19 22.0098C169.61 21.2891 169.821 20.4126 169.821 19.3804C169.821 18.3481 169.61 17.4833 169.19 16.7811C168.769 16.079 168.188 15.549 167.451 15.1886C166.713 14.8282 165.88 14.6469 164.958 14.6469C164.035 14.6469 163.152 14.8213 162.435 15.1723C161.716 15.5234 161.163 16.0488 160.772 16.7509C160.381 17.453 160.187 18.3295 160.187 19.3804C160.187 20.4312 160.381 21.2821 160.772 21.9959C161.161 22.7073 161.716 23.249 162.435 23.621C163.152 23.9929 163.993 24.1789 164.958 24.1789C165.922 24.1789 166.713 23.9976 167.451 23.6372V23.6349Z" fill="white"></path>
    <path d="M190.027 17.8948L188.242 19.5664V18.3598C188.242 17.0602 187.867 16.0442 187.118 15.3119C186.369 14.5795 185.358 14.2145 184.086 14.2145C183.265 14.2145 182.548 14.3842 181.931 14.726C181.316 15.0654 180.84 15.5513 180.5 16.1791C180.162 16.8091 179.991 17.567 179.991 18.4528V19.7826C180.012 21.2264 180.379 22.3772 181.099 23.2328C181.815 24.0883 182.842 24.5161 184.176 24.5161C185.263 24.5161 186.151 24.2743 186.838 23.7884C187.525 23.3048 187.981 22.6074 188.207 21.7007H191.93C191.623 23.3932 190.823 24.7742 189.53 25.8459C188.237 26.9177 186.464 27.4548 184.207 27.4548C182.544 27.4548 181.119 27.1037 179.928 26.4016C178.737 25.6995 177.831 24.73 177.204 23.4932C176.578 22.2563 176.265 20.8428 176.265 19.2549C176.265 17.667 176.589 16.186 177.234 15.0003C177.88 13.8146 178.788 12.9079 179.958 12.2779C181.129 11.6478 182.472 11.334 183.989 11.334C186.431 11.334 188.36 12.0105 189.775 13.3613C191.19 14.712 191.898 16.5836 191.898 18.9759V20.1825H179.464V17.8925H190.02L190.027 17.8948Z" fill="white"></path>
    <path d="M195.395 12.2335C195.795 11.8429 196.396 11.6453 197.197 11.6453H206.583V14.9559H198.582V27.1476H194.796V14.0259C194.796 13.2215 194.997 12.624 195.397 12.2311L195.395 12.2335Z" fill="white"></path>
    <path d="M131.232 5.20325V8.72313L127.458 8.75336V5.20093H131.232V5.20325Z" fill="white"></path>
    <path d="M2.37031 0H15.4198V3.80584H3.293V11.85H0V2.41323C0 1.60882 0.19425 1.00668 0.585063 0.604471C0.973562 0.202265 1.57019 0 2.37031 0Z" fill="white"></path>
    <path d="M219.63 39.0001H206.58V35.1943H218.707V27.1501H222V36.5869C222 37.3913 221.806 37.9958 221.415 38.398C221.024 38.8002 220.43 39.0024 219.63 39.0024V39.0001Z" fill="white"></path>
  </g>
  <defs>
    <clipPath id="clip0_1195_147">
      <rect width="222" height="39" fill="white"></rect>
    </clipPath>
  </defs>
</svg>
